<mxfile host="app.diagrams.net" modified="2023-06-16T21:35:36.351Z" agent="Mozilla/5.0 (Windows NT 10.0; Win64; x64) AppleWebKit/537.36 (KHTML, like Gecko) Chrome/114.0.0.0 Safari/537.36" etag="3tkxGSzN4nNILWRdzSJ4" version="21.4.0" type="github">
  <diagram name="Page-1" id="rA6JARq4D4WdvBc8ScIa">
    <mxGraphModel dx="1050" dy="1681" grid="1" gridSize="10" guides="1" tooltips="1" connect="1" arrows="1" fold="1" page="1" pageScale="1" pageWidth="850" pageHeight="1100" math="0" shadow="0">
      <root>
        <mxCell id="0" />
        <mxCell id="1" parent="0" />
        <mxCell id="xuOPKl3gxGMBNxYLYo8e-30" value="" style="group" vertex="1" connectable="0" parent="1">
          <mxGeometry x="190" y="-130" width="470" height="210" as="geometry" />
        </mxCell>
        <mxCell id="xuOPKl3gxGMBNxYLYo8e-1" value="Lead input&amp;nbsp;" style="rounded=0;whiteSpace=wrap;html=1;movable=1;resizable=1;rotatable=1;deletable=1;editable=1;locked=0;connectable=1;" vertex="1" parent="xuOPKl3gxGMBNxYLYo8e-30">
          <mxGeometry x="212.0300751879699" y="142.79999999999998" width="84.81203007518796" height="50.4" as="geometry" />
        </mxCell>
        <mxCell id="xuOPKl3gxGMBNxYLYo8e-2" value="" style="endArrow=classic;html=1;rounded=0;entryX=0;entryY=0.5;entryDx=0;entryDy=0;movable=1;resizable=1;rotatable=1;deletable=1;editable=1;locked=0;connectable=1;" edge="1" parent="xuOPKl3gxGMBNxYLYo8e-30" target="xuOPKl3gxGMBNxYLYo8e-1">
          <mxGeometry width="50" height="50" relative="1" as="geometry">
            <mxPoint x="155.48872180451127" y="168" as="sourcePoint" />
            <mxPoint x="155.48872180451127" y="126" as="targetPoint" />
          </mxGeometry>
        </mxCell>
        <mxCell id="xuOPKl3gxGMBNxYLYo8e-3" value="" style="endArrow=classic;html=1;rounded=0;entryX=0.5;entryY=0;entryDx=0;entryDy=0;exitX=0.57;exitY=1.05;exitDx=0;exitDy=0;exitPerimeter=0;movable=1;resizable=1;rotatable=1;deletable=1;editable=1;locked=0;connectable=1;" edge="1" parent="xuOPKl3gxGMBNxYLYo8e-30" source="xuOPKl3gxGMBNxYLYo8e-6" target="xuOPKl3gxGMBNxYLYo8e-1">
          <mxGeometry width="50" height="50" relative="1" as="geometry">
            <mxPoint x="254.4360902255639" y="92.39999999999999" as="sourcePoint" />
            <mxPoint x="275.63909774436087" y="109.2" as="targetPoint" />
          </mxGeometry>
        </mxCell>
        <mxCell id="xuOPKl3gxGMBNxYLYo8e-5" value="" style="endArrow=classic;html=1;rounded=0;movable=1;resizable=1;rotatable=1;deletable=1;editable=1;locked=0;connectable=1;" edge="1" parent="xuOPKl3gxGMBNxYLYo8e-30">
          <mxGeometry width="50" height="50" relative="1" as="geometry">
            <mxPoint x="353.38345864661653" y="168" as="sourcePoint" />
            <mxPoint x="296.84210526315786" y="168" as="targetPoint" />
          </mxGeometry>
        </mxCell>
        <mxCell id="xuOPKl3gxGMBNxYLYo8e-6" value="Website contact us" style="rounded=0;whiteSpace=wrap;html=1;movable=1;resizable=1;rotatable=1;deletable=1;editable=1;locked=0;connectable=1;" vertex="1" parent="xuOPKl3gxGMBNxYLYo8e-30">
          <mxGeometry x="155.48872180451127" y="50.4" width="84.81203007518796" height="50.4" as="geometry" />
        </mxCell>
        <mxCell id="xuOPKl3gxGMBNxYLYo8e-7" value="Other source" style="rounded=0;whiteSpace=wrap;html=1;movable=1;resizable=1;rotatable=1;deletable=1;editable=1;locked=0;connectable=1;" vertex="1" parent="xuOPKl3gxGMBNxYLYo8e-30">
          <mxGeometry x="353.38345864661653" y="142.79999999999998" width="84.81203007518796" height="50.4" as="geometry" />
        </mxCell>
        <mxCell id="xuOPKl3gxGMBNxYLYo8e-8" value="Google form" style="rounded=0;whiteSpace=wrap;html=1;movable=1;resizable=1;rotatable=1;deletable=1;editable=1;locked=0;connectable=1;" vertex="1" parent="xuOPKl3gxGMBNxYLYo8e-30">
          <mxGeometry x="70.67669172932331" y="142.79999999999998" width="84.81203007518796" height="50.4" as="geometry" />
        </mxCell>
        <mxCell id="xuOPKl3gxGMBNxYLYo8e-9" value="" style="endArrow=classic;html=1;rounded=0;entryX=0.583;entryY=0;entryDx=0;entryDy=0;exitX=0.57;exitY=1.05;exitDx=0;exitDy=0;exitPerimeter=0;entryPerimeter=0;movable=1;resizable=1;rotatable=1;deletable=1;editable=1;locked=0;connectable=1;" edge="1" parent="xuOPKl3gxGMBNxYLYo8e-30" source="xuOPKl3gxGMBNxYLYo8e-10" target="xuOPKl3gxGMBNxYLYo8e-1">
          <mxGeometry width="50" height="50" relative="1" as="geometry">
            <mxPoint x="374.5864661654135" y="92.39999999999999" as="sourcePoint" />
            <mxPoint x="374.5864661654135" y="142.79999999999998" as="targetPoint" />
          </mxGeometry>
        </mxCell>
        <mxCell id="xuOPKl3gxGMBNxYLYo8e-10" value="Manual entry" style="rounded=0;whiteSpace=wrap;html=1;movable=1;resizable=1;rotatable=1;deletable=1;editable=1;locked=0;connectable=1;" vertex="1" parent="xuOPKl3gxGMBNxYLYo8e-30">
          <mxGeometry x="275.63909774436087" y="50.4" width="84.81203007518796" height="50.4" as="geometry" />
        </mxCell>
        <mxCell id="xuOPKl3gxGMBNxYLYo8e-11" value="" style="endArrow=none;dashed=1;html=1;rounded=0;movable=1;resizable=1;rotatable=1;deletable=1;editable=1;locked=0;connectable=1;" edge="1" parent="xuOPKl3gxGMBNxYLYo8e-30">
          <mxGeometry width="50" height="50" relative="1" as="geometry">
            <mxPoint x="42.40601503759398" y="210" as="sourcePoint" />
            <mxPoint x="466.4661654135338" y="210" as="targetPoint" />
          </mxGeometry>
        </mxCell>
        <mxCell id="xuOPKl3gxGMBNxYLYo8e-12" value="" style="endArrow=none;dashed=1;html=1;rounded=0;movable=1;resizable=1;rotatable=1;deletable=1;editable=1;locked=0;connectable=1;" edge="1" parent="xuOPKl3gxGMBNxYLYo8e-30" source="xuOPKl3gxGMBNxYLYo8e-15">
          <mxGeometry width="50" height="50" relative="1" as="geometry">
            <mxPoint x="42.40601503759398" y="25.2" as="sourcePoint" />
            <mxPoint x="42.40601503759398" y="210" as="targetPoint" />
          </mxGeometry>
        </mxCell>
        <mxCell id="xuOPKl3gxGMBNxYLYo8e-13" value="" style="endArrow=none;dashed=1;html=1;rounded=0;movable=1;resizable=1;rotatable=1;deletable=1;editable=1;locked=0;connectable=1;" edge="1" parent="xuOPKl3gxGMBNxYLYo8e-30">
          <mxGeometry width="50" height="50" relative="1" as="geometry">
            <mxPoint x="45.939849624060145" y="25.2" as="sourcePoint" />
            <mxPoint x="470" y="25.2" as="targetPoint" />
          </mxGeometry>
        </mxCell>
        <mxCell id="xuOPKl3gxGMBNxYLYo8e-14" value="" style="endArrow=none;dashed=1;html=1;rounded=0;movable=1;resizable=1;rotatable=1;deletable=1;editable=1;locked=0;connectable=1;" edge="1" parent="xuOPKl3gxGMBNxYLYo8e-30">
          <mxGeometry width="50" height="50" relative="1" as="geometry">
            <mxPoint x="466.4661654135338" y="25.2" as="sourcePoint" />
            <mxPoint x="466.4661654135338" y="210" as="targetPoint" />
          </mxGeometry>
        </mxCell>
        <mxCell id="xuOPKl3gxGMBNxYLYo8e-15" value="Lead module" style="rounded=0;whiteSpace=wrap;html=1;movable=1;resizable=1;rotatable=1;deletable=1;editable=1;locked=0;connectable=1;" vertex="1" parent="xuOPKl3gxGMBNxYLYo8e-30">
          <mxGeometry width="84.81203007518796" height="50.4" as="geometry" />
        </mxCell>
        <mxCell id="xuOPKl3gxGMBNxYLYo8e-16" value="Lead input&amp;nbsp;" style="rounded=0;whiteSpace=wrap;html=1;movable=1;resizable=1;rotatable=1;deletable=1;editable=1;locked=0;connectable=1;" vertex="1" parent="xuOPKl3gxGMBNxYLYo8e-30">
          <mxGeometry x="212.0300751879699" y="142.79999999999998" width="84.81203007518796" height="50.4" as="geometry" />
        </mxCell>
        <mxCell id="xuOPKl3gxGMBNxYLYo8e-17" value="" style="endArrow=classic;html=1;rounded=0;entryX=0;entryY=0.5;entryDx=0;entryDy=0;movable=1;resizable=1;rotatable=1;deletable=1;editable=1;locked=0;connectable=1;" edge="1" target="xuOPKl3gxGMBNxYLYo8e-16" parent="xuOPKl3gxGMBNxYLYo8e-30">
          <mxGeometry width="50" height="50" relative="1" as="geometry">
            <mxPoint x="155.48872180451127" y="168" as="sourcePoint" />
            <mxPoint x="155.48872180451127" y="126" as="targetPoint" />
          </mxGeometry>
        </mxCell>
        <mxCell id="xuOPKl3gxGMBNxYLYo8e-18" value="" style="endArrow=classic;html=1;rounded=0;entryX=0.5;entryY=0;entryDx=0;entryDy=0;exitX=0.57;exitY=1.05;exitDx=0;exitDy=0;exitPerimeter=0;movable=1;resizable=1;rotatable=1;deletable=1;editable=1;locked=0;connectable=1;" edge="1" source="xuOPKl3gxGMBNxYLYo8e-20" target="xuOPKl3gxGMBNxYLYo8e-16" parent="xuOPKl3gxGMBNxYLYo8e-30">
          <mxGeometry width="50" height="50" relative="1" as="geometry">
            <mxPoint x="254.4360902255639" y="92.39999999999999" as="sourcePoint" />
            <mxPoint x="275.63909774436087" y="109.2" as="targetPoint" />
          </mxGeometry>
        </mxCell>
        <mxCell id="xuOPKl3gxGMBNxYLYo8e-19" value="" style="endArrow=classic;html=1;rounded=0;movable=1;resizable=1;rotatable=1;deletable=1;editable=1;locked=0;connectable=1;" edge="1" parent="xuOPKl3gxGMBNxYLYo8e-30">
          <mxGeometry width="50" height="50" relative="1" as="geometry">
            <mxPoint x="353.38345864661653" y="168" as="sourcePoint" />
            <mxPoint x="296.84210526315786" y="168" as="targetPoint" />
          </mxGeometry>
        </mxCell>
        <mxCell id="xuOPKl3gxGMBNxYLYo8e-20" value="Website contact us" style="rounded=0;whiteSpace=wrap;html=1;movable=1;resizable=1;rotatable=1;deletable=1;editable=1;locked=0;connectable=1;" vertex="1" parent="xuOPKl3gxGMBNxYLYo8e-30">
          <mxGeometry x="155.48872180451127" y="50.4" width="84.81203007518796" height="50.4" as="geometry" />
        </mxCell>
        <mxCell id="xuOPKl3gxGMBNxYLYo8e-21" value="Other source" style="rounded=0;whiteSpace=wrap;html=1;movable=1;resizable=1;rotatable=1;deletable=1;editable=1;locked=0;connectable=1;" vertex="1" parent="xuOPKl3gxGMBNxYLYo8e-30">
          <mxGeometry x="353.38345864661653" y="142.79999999999998" width="84.81203007518796" height="50.4" as="geometry" />
        </mxCell>
        <mxCell id="xuOPKl3gxGMBNxYLYo8e-22" value="Google form" style="rounded=0;whiteSpace=wrap;html=1;movable=1;resizable=1;rotatable=1;deletable=1;editable=1;locked=0;connectable=1;" vertex="1" parent="xuOPKl3gxGMBNxYLYo8e-30">
          <mxGeometry x="70.67669172932331" y="142.79999999999998" width="84.81203007518796" height="50.4" as="geometry" />
        </mxCell>
        <mxCell id="xuOPKl3gxGMBNxYLYo8e-23" value="" style="endArrow=classic;html=1;rounded=0;entryX=0.583;entryY=0;entryDx=0;entryDy=0;exitX=0.57;exitY=1.05;exitDx=0;exitDy=0;exitPerimeter=0;entryPerimeter=0;movable=1;resizable=1;rotatable=1;deletable=1;editable=1;locked=0;connectable=1;" edge="1" source="xuOPKl3gxGMBNxYLYo8e-24" target="xuOPKl3gxGMBNxYLYo8e-16" parent="xuOPKl3gxGMBNxYLYo8e-30">
          <mxGeometry width="50" height="50" relative="1" as="geometry">
            <mxPoint x="374.5864661654135" y="92.39999999999999" as="sourcePoint" />
            <mxPoint x="374.5864661654135" y="142.79999999999998" as="targetPoint" />
          </mxGeometry>
        </mxCell>
        <mxCell id="xuOPKl3gxGMBNxYLYo8e-24" value="Manual entry" style="rounded=0;whiteSpace=wrap;html=1;movable=1;resizable=1;rotatable=1;deletable=1;editable=1;locked=0;connectable=1;" vertex="1" parent="xuOPKl3gxGMBNxYLYo8e-30">
          <mxGeometry x="275.63909774436087" y="50.4" width="84.81203007518796" height="50.4" as="geometry" />
        </mxCell>
        <mxCell id="xuOPKl3gxGMBNxYLYo8e-25" value="" style="endArrow=none;dashed=1;html=1;rounded=0;movable=1;resizable=1;rotatable=1;deletable=1;editable=1;locked=0;connectable=1;" edge="1" parent="xuOPKl3gxGMBNxYLYo8e-30">
          <mxGeometry width="50" height="50" relative="1" as="geometry">
            <mxPoint x="42.40601503759398" y="210" as="sourcePoint" />
            <mxPoint x="466.4661654135338" y="210" as="targetPoint" />
          </mxGeometry>
        </mxCell>
        <mxCell id="xuOPKl3gxGMBNxYLYo8e-26" value="" style="endArrow=none;dashed=1;html=1;rounded=0;movable=1;resizable=1;rotatable=1;deletable=1;editable=1;locked=0;connectable=1;" edge="1" source="xuOPKl3gxGMBNxYLYo8e-29" parent="xuOPKl3gxGMBNxYLYo8e-30">
          <mxGeometry width="50" height="50" relative="1" as="geometry">
            <mxPoint x="42.40601503759398" y="25.2" as="sourcePoint" />
            <mxPoint x="42.40601503759398" y="210" as="targetPoint" />
          </mxGeometry>
        </mxCell>
        <mxCell id="xuOPKl3gxGMBNxYLYo8e-27" value="" style="endArrow=none;dashed=1;html=1;rounded=0;movable=1;resizable=1;rotatable=1;deletable=1;editable=1;locked=0;connectable=1;" edge="1" parent="xuOPKl3gxGMBNxYLYo8e-30">
          <mxGeometry width="50" height="50" relative="1" as="geometry">
            <mxPoint x="45.939849624060145" y="25.2" as="sourcePoint" />
            <mxPoint x="470" y="25.2" as="targetPoint" />
          </mxGeometry>
        </mxCell>
        <mxCell id="xuOPKl3gxGMBNxYLYo8e-28" value="" style="endArrow=none;dashed=1;html=1;rounded=0;movable=1;resizable=1;rotatable=1;deletable=1;editable=1;locked=0;connectable=1;" edge="1" parent="xuOPKl3gxGMBNxYLYo8e-30">
          <mxGeometry width="50" height="50" relative="1" as="geometry">
            <mxPoint x="466.4661654135338" y="25.2" as="sourcePoint" />
            <mxPoint x="466.4661654135338" y="210" as="targetPoint" />
          </mxGeometry>
        </mxCell>
        <mxCell id="xuOPKl3gxGMBNxYLYo8e-29" value="Lead module" style="rounded=0;whiteSpace=wrap;html=1;movable=1;resizable=1;rotatable=1;deletable=1;editable=1;locked=0;connectable=1;" vertex="1" parent="xuOPKl3gxGMBNxYLYo8e-30">
          <mxGeometry width="84.81203007518796" height="50.4" as="geometry" />
        </mxCell>
      </root>
    </mxGraphModel>
  </diagram>
</mxfile>
